<?xml version="1.0" standalone="no"?><!DOCTYPE svg PUBLIC "-//W3C//DTD SVG 1.1//EN" "http://www.w3.org/Graphics/SVG/1.1/DTD/svg11.dtd"><svg t="1594091614337" class="icon" viewBox="0 0 1024 1024" version="1.1" xmlns="http://www.w3.org/2000/svg" p-id="8629" xmlns:xlink="http://www.w3.org/1999/xlink" width="128" height="128"><defs><style type="text/css"></style></defs><path d="M835.788335 799.25729c76.76928-80.600747 123.901362-189.68607 123.901362-309.781566 0-248.113493-201.127719-449.241212-449.235782-449.241212S61.207273 241.36223 61.207273 489.475724c0 232.554899 189.060034 426.179336 415.534545 449.241212h398.592621c12.830565 8.871874 30.543282 7.874405 42.310128-3.290298 13.50144-12.788674 14.066192-34.120921 1.26402-47.622362l-83.120252-88.546986zM476.741818 871.330909C283.019636 852.903874 128.593455 688.015981 128.593455 489.475724c0-210.888766 170.963472-381.85503 381.86046-381.855031 210.886284 0 381.852238 170.966264 381.852238 381.855031 0 102.689978-40.542798 195.908112-106.488708 264.534884L740.227879 795.306667s11.067733 12.06815 13.775437 14.925575l57.029663 61.098667H476.741818z" p-id="8630" fill="#bfbfbf"></path><path d="M521.682075 444.551602c-18.609648 0-33.695651 15.069712-33.695651 33.693169v202.158545c0 18.601425 15.086002 33.693168 33.695651 33.693169 18.604218 0 33.693168-15.091743 33.693169-33.693169V478.244771c-0.000155-18.623457-15.08895-33.693168-33.693169-33.693169zM521.682075 309.779394c-18.609648 0-33.695651 15.069712-33.695651 33.693168 0 18.601425 15.086002 33.693013 33.695651 33.693014 18.604218 0 33.693168-15.091743 33.693169-33.693014-0.000155-18.623612-15.08895-33.693168-33.693169-33.693168z" p-id="8631" fill="#bfbfbf"></path></svg>