<?xml version="1.0" standalone="no"?><!DOCTYPE svg PUBLIC "-//W3C//DTD SVG 1.1//EN" "http://www.w3.org/Graphics/SVG/1.1/DTD/svg11.dtd"><svg t="1594091455832" class="icon" viewBox="0 0 1024 1024" version="1.1" xmlns="http://www.w3.org/2000/svg" p-id="3889" xmlns:xlink="http://www.w3.org/1999/xlink" width="128" height="128"><defs><style type="text/css"></style></defs><path d="M896.775758 277.721212c-145.842424 119.466667-401.842424 232.727273-560.09697 322.715152-40.339394 21.721212-66.715152 32.581818-114.812121 23.272727-18.618182-4.654545-38.787879-9.309091-57.406061-15.515152 0 0-20.169697-6.206061-27.927273-9.309091-27.927273-9.309091-49.648485-20.169697-60.509091-29.478787-21.721212-20.169697-15.515152-41.890909 26.375758-49.648485 43.442424-1.551515 55.854545 4.654545 93.090909 6.20606 0 0 24.824242 0 38.787879-3.10303 13.963636-1.551515 26.375758-4.654545 40.339394-9.309091 57.406061-26.375758 111.709091-55.854545 162.909091-86.884848 32.581818-18.618182-150.49697-113.260606-206.351515-172.218182-24.824242-26.375758 17.066667-44.993939 46.545454-44.99394 37.236364-3.10303 328.921212 108.606061 345.987879 96.19394 79.127273-52.751515 153.6-97.745455 229.624242-127.224243 105.50303-26.375758 155.151515 7.757576 43.442425 99.29697z m-88.436364 319.612121l-29.478788-29.478788c-12.412121-12.412121-12.412121-32.581818 0-44.993939 12.412121-12.412121 32.581818-12.412121 44.993939 0 52.751515 52.751515 79.127273 79.127273 79.127273 80.678788 6.206061 6.206061 13.963636 15.515152 13.963637 26.375758 0 17.066667-13.963636 32.581818-32.581819 32.581818H522.860606c-17.066667 0-32.581818-13.963636-32.581818-32.581818s13.963636-32.581818 32.581818-32.581819h285.478788zM600.436364 789.721212l29.478788 29.478788c12.412121 12.412121 12.412121 32.581818 0 44.993939-12.412121 12.412121-32.581818 12.412121-44.99394 0l-80.678788-80.678787c-7.757576-6.206061-13.963636-15.515152-13.963636-27.927273 0-17.066667 13.963636-32.581818 32.581818-32.581818h363.054546c17.066667 0 32.581818 13.963636 32.581818 32.581818s-13.963636 32.581818-32.581818 32.581818H600.436364z" p-id="3890"></path></svg>