<?xml version="1.0" standalone="no"?><!DOCTYPE svg PUBLIC "-//W3C//DTD SVG 1.1//EN" "http://www.w3.org/Graphics/SVG/1.1/DTD/svg11.dtd"><svg t="1594091549947" class="icon" viewBox="0 0 1024 1024" version="1.1" xmlns="http://www.w3.org/2000/svg" p-id="6316" xmlns:xlink="http://www.w3.org/1999/xlink" width="128" height="128"><defs><style type="text/css"></style></defs><path d="M511.5 958.5c-247.424 0-448-200.576-448-448s200.576-448 448-448 448 200.576 448 448-200.576 448-448 448z m0-796c-192.195 0-348 155.805-348 348s155.805 348 348 348 348-155.8 348-348-155.8-348-348-348z m50.156 416.714v19A50 50 0 1 1 462 604h-0.344v-63H462q-0.246-2.467-0.25-5a50 50 0 0 1 50-50c0.084 0 0.166 0.006 0.25 0.006V486a84 84 0 1 0-84-84c0 0.6 0.033 1.187 0.045 1.781h-0.3c0 0.074 0.006 0.146 0.006 0.219a50 50 0 1 1-99.707-5.385C329.85 298.558 411.511 218 512 218a184.023 184.023 0 0 1 49.656 361.214zM510 704a50 50 0 1 1-50 50 50 50 0 0 1 50-50z" p-id="6317" fill="#bfbfbf"></path></svg>