<?xml version="1.0" standalone="no"?><!DOCTYPE svg PUBLIC "-//W3C//DTD SVG 1.1//EN" "http://www.w3.org/Graphics/SVG/1.1/DTD/svg11.dtd"><svg t="1594091576025" class="icon" viewBox="0 0 1024 1024" version="1.1" xmlns="http://www.w3.org/2000/svg" p-id="7830" xmlns:xlink="http://www.w3.org/1999/xlink" width="128" height="128"><defs><style type="text/css"></style></defs><path d="M661.3 835.4c-11.2 0-23.2-2.3-36.1-6.9-23.6-8.4-49.4-24.4-76.8-47.6C494 734.8 438 664.4 390.9 582.8s-80.1-165.2-92.8-235.4c-6.4-35.3-7.3-65.7-2.9-90.3 5.2-28.7 17.7-49 37.1-60.2 19.4-11.2 43.1-11.9 70.6-2 23.6 8.4 49.4 24.4 76.8 47.6 54.5 46.1 110.4 116.4 157.5 198 47.1 81.6 80.1 165.2 92.8 235.4 6.4 35.3 7.3 65.7 2.9 90.3-5.2 28.7-17.7 49-37.1 60.2-10.3 6-21.8 9-34.5 9zM367.1 224.5c-6.3 0-11.9 1.3-16.5 4-20.9 12.1-27.1 54.1-16.5 112.4 12 66.2 43.4 145.6 88.4 223.7S520.7 709.6 572 753c45.2 38.3 84.7 53.9 105.6 41.8 20.9-12.1 27.1-54.1 16.5-112.4-12-66.2-43.4-145.6-88.4-223.7s-98.2-145-149.5-188.4c-35.2-29.7-66.9-45.8-89.1-45.8z" p-id="7831" fill="#bfbfbf"></path><path d="M366.9 835.4c-12.7 0-24.2-3-34.5-8.9-19.4-11.2-31.8-31.4-37.1-60.2-4.5-24.6-3.5-55 2.9-90.3 12.7-70.2 45.6-153.8 92.8-235.4 47.1-81.6 103.1-152 157.5-198 27.4-23.2 53.2-39.2 76.8-47.6 27.5-9.8 51.3-9.1 70.6 2 19.4 11.2 31.8 31.4 37.1 60.2 4.5 24.6 3.5 55-2.9 90.3-12.7 70.2-45.6 153.8-92.8 235.4-47.1 81.6-103.1 152-157.5 198-27.4 23.2-53.2 39.2-76.8 47.6-12.9 4.6-24.9 6.9-36.1 6.9zM661 224.5c-22.2 0-53.9 16.1-89 45.8-51.3 43.4-104.4 110.4-149.5 188.4S346 616.3 334.1 682.5c-10.5 58.3-4.3 100.3 16.5 112.4 20.9 12.1 60.4-3.6 105.6-41.8 51.3-43.4 104.4-110.4 149.5-188.4s76.5-157.5 88.4-223.7c10.5-58.3 4.3-100.3-16.5-112.4-4.7-2.8-10.2-4.1-16.6-4.1z m-39.5 349.2z" p-id="7832" fill="#bfbfbf"></path><path d="M514.1 657.9c-94.3 0-183.1-13.3-250.3-37.4-33.8-12.1-60.6-26.5-79.6-42.7-22.3-18.9-33.6-39.8-33.6-62.2s11.3-43.3 33.6-62.2c19.1-16.2 45.9-30.5 79.6-42.7 67.1-24.1 156-37.4 250.3-37.4s183.1 13.3 250.3 37.4c33.8 12.1 60.6 26.5 79.6 42.7 22.3 18.9 33.6 39.8 33.6 62.2s-11.3 43.3-33.6 62.2c-19.1 16.2-45.9 30.6-79.6 42.7-67.2 24.1-156 37.4-250.3 37.4z m0-248c-90.2 0-174.7 12.5-237.9 35.2-55.7 20-89 46.4-89 70.5s33.3 50.5 89 70.5c63.3 22.7 147.8 35.2 237.9 35.2s174.7-12.5 237.9-35.2c55.7-20 89-46.4 89-70.5s-33.3-50.5-89-70.5c-63.2-22.7-147.7-35.2-237.9-35.2z" p-id="7833" fill="#bfbfbf"></path><path d="M514.1 580.9c-38.2 0-69.3-31.1-69.3-69.3s31.1-69.3 69.3-69.3 69.3 31.1 69.3 69.3-31.1 69.3-69.3 69.3z m0-102c-18.1 0-32.8 14.7-32.8 32.8 0 18.1 14.7 32.8 32.8 32.8 18.1 0 32.8-14.7 32.8-32.8 0-18.1-14.7-32.8-32.8-32.8z" p-id="7834" fill="#bfbfbf"></path><path d="M442.1 245.4m-47.1 0a47.1 47.1 0 1 0 94.2 0 47.1 47.1 0 1 0-94.2 0Z" p-id="7835" fill="#bfbfbf"></path><path d="M442.1 783.8m-47.1 0a47.1 47.1 0 1 0 94.2 0 47.1 47.1 0 1 0-94.2 0Z" p-id="7836" fill="#bfbfbf"></path><path d="M796.9 449.4m-47.1 0a47.1 47.1 0 1 0 94.2 0 47.1 47.1 0 1 0-94.2 0Z" p-id="7837" fill="#bfbfbf"></path></svg>